<svg xmlns="http://www.w3.org/2000/svg" xmlns:xlink="http://www.w3.org/1999/xlink" viewBox="0 0 145 145">
  <circle cx="72.3" cy="72.3" r="72.3" fill="#22bdef"/>
<!--
  <g fill="#FFF">
    <path d="M18.7 173.3c-.1 1.7-1.4 2.8-3.3 2.8-2.3 0-3.6-2.6-3.6-5.1 0-2.5 1.2-5.1 3.6-5.1 2 0 3.1.9 3.3 2.7v.1h1.9v-.1c-.1-2.6-2.1-4.3-4.9-4.3-3.9 0-5.7 3.5-5.7 6.7 0 3.3 1.7 6.7 5.6 6.7 2.9 0 4.6-1.5 5-4.4v-.2h-1.9v.2zM28.2 164.2c-1.6 0-2.9.7-3.8 2v-7.1h-1.8v18.1h1.8V170c0-1.9.9-4.1 3.4-4.1 2 0 3.1 1.2 3.1 3.3v8.2h1.8v-7.9c0-4.6-2.9-5.3-4.5-5.3M35.8 164.6h1.8v12.7h-1.8zM35.6 159.2h2v2.1h-2zM40.8 159.2h1.8v18.1h-1.8zM55.7 174.4v-15.2H54v7.1c-.9-1.2-2.5-2-4.2-2-2.5 0-5.2 1.8-5.2 6.7 0 3.4 1.6 6.8 5.2 6.8 1.7 0 3.1-.7 4.2-2.1l.1 1.7h1.8v-.6c-.1-.8-.2-1.6-.2-2.4m-1.8-3.7c0 2-.5 5.4-4.1 5.4-3 0-3.4-3.7-3.4-5.3 0-1.1.3-4.9 3.6-4.9 3.7 0 3.9 3.6 3.9 4.8M64.6 164.3h-1.5c-1.1 0-2.2.8-2.7 1.8l-.1-1.5h-1.8v.7c0 .7.1 1.4.1 2.1v9.8h1.8v-7.6c.1-2.4 1.2-3.8 3.3-3.8.2 0 .4 0 .5.1h.5v-1.7l-.1.1zM70.9 164.2c-3.9 0-5.7 3.5-5.7 6.7 0 3.3 1.7 6.7 5.6 6.7 3.1 0 5-1.5 5.8-4.4v-.2h-1.8v.1c-.4 1.7-1.8 2.9-3.5 2.9-3.6 0-4.1-3.1-4.2-4.6h9.6v-.1c0-4.6-2.1-7.1-5.8-7.1m-3.8 5.6c.2-1.8 1.3-3.9 3.8-3.9 2.2 0 3.7 1.4 3.9 3.9h-7.7zM84.3 164.2c-1.6 0-3 .7-3.8 2l-.1-1.6h-1.8v.6c0 .7.1 1.5.1 2.3v9.8h1.8V170c0-1.9.9-4.1 3.4-4.1 2 0 3.1 1.2 3.1 3.3v8.2h1.8v-7.9c0-4.6-2.8-5.3-4.5-5.3M101.6 159c-.4-.1-.7-.2-1.1-.2-2.2 0-3.1 1-3.1 3.2v2.5h-2.5v1.6h2.5v11.1h1.8v-11.1h2.8v-1.6h-2.8V163c0-1 0-1.8.4-2.2.3-.3.8-.4 1.5-.4.3 0 .6 0 .9.1h.2V159h-.1c-.2.1-.3.1-.5 0M104.3 164.6h1.8v12.7h-1.8zM104.2 159.2h2v2.1h-2zM114.7 164.3h-1.5c-1.1 0-2.2.8-2.7 1.8l-.1-1.5h-1.8v.7c0 .7.1 1.4.1 2.1v9.8h1.8v-7.6c.1-2.4 1.2-3.8 3.3-3.8.2 0 .4 0 .5.1h.5v-1.7l-.1.1zM123.5 170.5c-1-.4-1.9-.6-2.7-.8-1.8-.5-2.9-.7-2.9-1.9 0-1.4 1.4-1.9 2.7-1.9 1.3 0 2.8.3 2.9 2v.1h1.9v-.1c-.2-2.3-1.8-3.6-4.7-3.6-2.3 0-4.7.9-4.7 3.6 0 2.5 2.3 3.1 4 3.5l.4.1c1.8.4 3.4.8 3.4 2.3 0 1.6-1.6 2.3-3.1 2.3-1.4 0-3.2-.4-3.3-2.3v-.1h-1.9v.1c.1 2.9 2.6 3.9 4.8 3.9 2.7 0 5.4-1.3 5.4-4.2 0-1.4-.9-2.6-2.2-3M132.1 176c-.5 0-.9-.1-1.2-.4-.3-.3-.4-.7-.4-1.2v-8.2h2.8v-1.6h-2.8v-3.4l-1.8.8v2.6h-2.5v1.6h2.5V174.1c0 1 0 2.1.7 2.8.5.5 1.3.8 2.4.8.6 0 1.2-.1 1.5-.2h.1v-1.6l-.2.1h-1.1M135.5 174.9h2.3v2.4h-2.3z"/>
  </g>
-->
  <g fill="#FFF">
    <path d="M115.8 57.7c-6.1 0-11.1 5-11.1 11.1s5 11.1 11.1 11.1 11.1-5 11.1-11.1c.1-6.1-4.9-11.1-11.1-11.1zm8.7 4.9c-.6.4-1.2.7-1.8 1-.4-.7-.8-1.4-1.3-2.1.5-.3.9-.6 1.3-.9.7.6 1.3 1.3 1.8 2zm-4.7-3.7c.9.4 1.7.8 2.5 1.4l-1.2.9c-.5-.6-1.2-1.2-1.8-1.7.2-.2.4-.4.5-.6zm.9 2.5c-.6.3-1.2.6-1.9.8l-.9-1.8c.4-.2.7-.4 1-.6.7.5 1.3 1 1.8 1.6zm-1.3-2.7l-.5.5c-.6-.4-1.2-.7-1.9-1 .8.1 1.6.3 2.4.5zm-.9.8c-.3.2-.6.3-.9.5-.3-.5-.7-1-1.1-1.5.8.3 1.4.6 2 1zm-2.4-.9c.4.5.8 1 1.1 1.6-.4.1-.8.2-1.1.2v-1.8zm0 2.2c.5 0 .9-.1 1.4-.3l.9 1.8c-.8.2-1.5.3-2.3.3v-1.8zm-.5-2.2v1.8c-.4 0-.8-.1-1.1-.2.3-.6.7-1.1 1.1-1.6zM114 60c-.3-.1-.6-.3-.9-.5.6-.4 1.2-.7 1.9-1-.3.5-.6 1-1 1.5zm.7-1.8c-.7.3-1.3.6-1.9 1l-.5-.5c.8-.2 1.6-.4 2.4-.5zm7.6 19.1c-1.5-.8-1.5-1.9-1.4-2.4.1-.4.4-.2.6-.2 1 0 2-.3 3.3-1.6 1.4-1.5 1.9-4.7-.3-6.8-2.4-2.3-4.9-1.9-6.5.2-.3.4-1.1.7-1.8.7-1 0-.4.8-.4.9 0 .2-.2.3-.2.3-.4-.1-.2.4-.2.6 0 .2-.1.2-.2.2-.4 0-.3.4-.3.5 0 .1 0 .3-.2.4-.1.1-.3.4-.3.7 0 .5.4.8 1.2 1.3.7.5.8 1 .8 1.4 0 .4 0 1 .2 1.4.2.5.2 1.3-.8 1.4-1.2 0-3.4 1-3.6 1.1a6 6 0 01-2.3.2c-.4-.3-.7-.6-1.1-.9-.1-.5.1-1 .4-1.4.4.4 1 .4 1.4.4.3 0 2-.2 2.2-.3.2-.1.3-.1.5 0 .6.2 1.5.3 1.9-.9.4-1.2-.5-.9-.6-.8-.1.1-.3 0-.2-.1.2-.3-.1-.3-.2-.3-.3 0-.8.3-.9.5-.1.1-.3.1-.3.1-.5-.2-1.8.1-2.2-.6 0-.2-.3-3.2-.5-3.7 0-.1-.1-.3.1-.5.3-.5 1.3 0 1.8 0 .6 0 .7-.3.9-.5.2-.2.3-.1.4-.1.1-.1 0-.2 0-.3 0-.1.1 0 .2-.1s0-.3 0-.4c.2-.2.6 0 .3-.6-.1-.3.1-.7.2-.9.3-.4 1.4-2-.6-3.7-1.9-1.6-3.9-1.5-5.1-.1-1.3 1.4-.6 3.4-.5 3.9.1.5-.2 1-.7 1.2-.3.2-1.1.7-1.7 1.2.1-4.3 2.7-8.1 6.7-9.7l.6.6c-.4.3-1.4 1.2-1.4 1.2s.1 0 .3.1c.1 0 .3.1.3.1l1.3-1c.3.2.7.4 1 .6-.2.3-.7 1.2-.7 1.2s.1.1.2.1c.1.1.2.1.2.1s.5-1 .7-1.3c.4.1.9.2 1.4.3v1.8c-.3 0-.9 0-1.2-.1h-.2l.1.1c.1.1.1.2.2.3h1v3.3h.5v-.8c.7 0 1.2-.1 1.9-.1l.6-.5h-.3c-.7.1-1.4.1-1.9.2h-.3v-2.1c.8 0 1.7-.1 2.5-.3.2.5.6 1.9.6 1.9l.4-.1s-.4-1.3-.6-1.9c.7-.2 1.4-.5 2-.8.5.6 1 1.3 1.3 2-.3.2-.9.4-.9.4.5.1.8.2.8.2s.2-.1.3-.1c0 .1.1.3.1.3l.6.3-.1-.2s-.2-.5-.2-.6c.6-.3 1.3-.7 1.9-1.1 1.1 1.7 1.7 3.7 1.7 5.8-.5 3.4-2.2 6.4-4.7 8.4zM103.7 60.6l-.2.2c-.7.6-2.1 2.1-1.9 3.8v.1l.1.3.2-.2c.9-.8 1.6-2.3 1.9-3.9l.1-.5-.2.2zM100.7 63.5l-.1.2c-.1.3-.3.9-.4 1.6-.1 1.1-.1 2.7.9 3.8l.1.1.1.1.1-.7c.2-1.3-.1-3.9-.5-5.1l-.2-.4v.4zM99.6 68v.2c-.1 1.1 0 3.9 2.2 5.4l.3.2v-.3c0-1.1-1.3-4.2-2.2-5.3l-.3-.3v.1zM100 73v.2c.3 1.6 1.8 4.2 4.2 4.9l.3.1-.1-.3c-.4-1.2-2.7-4-4.1-4.9l-.3-.2v.2zM104.6 63l-.2.1c-1.7 1.1-2.6 2.3-2.5 3.9v.4l.3-.2c.9-.8 2.1-2.8 2.5-3.9l.1-.4-.2.1zM103.6 66.5l-.1.1c-.4.4-1.9 2-1.8 3.8 0 .3.1.6.2.9l.1.3.2-.3c.7-1 1.6-3.5 1.6-4.7v-.4l-.2.3zM103.7 69.8l-.1.1c-.7 1.1-1.1 2.2-1.1 3.2 0 .8.3 1.5.7 2.1l.2.2.1-.2c.3-.6.6-2.5.5-4 0-.5-.1-1-.2-1.3l-.1-.3v.2zM104.5 73.3v.2c-.2.7-.3 1.4-.3 2 0 1.5.7 2.6 1.9 3.4l.2.1v-.3-.2c0-1.2-.9-4.2-1.6-5.1l-.2-.3v.2zM102.1 78l.1.2c.9 1.6 2.5 3.6 5.5 3.1h.2l-.1-.2c-.6-.8-4.2-2.9-5.4-3.1l-.3-.1v.1zm.2-.1zM106.5 82l-.5.1.4.2c1.9.8 4.3 1 5.6.5.5-.2.8-.5 1.2-.8 2.4.3 4.7 2.3 6 3.9l.1.1h.1c.1-.1.4-.2.5-.3l.1-.1-.1-.1c-1.4-1.8-3.5-2.9-3.6-3-1.9-1-5.3-1.8-9.8-.5z"/>
    <path d="M106.6 76.9v.2c.3 1.8 1 4.1 4 3.9h.2v-.2c-.2-.8-3-3.2-3.9-3.8l-.3-.1z"/>
      <path d="M127.8 60.5l.1.5c.3 1.6 1 3 1.9 3.9l.2.1.1-.3v-.1c.2-1.7-1.3-3.2-1.9-3.8l-.2-.2-.2-.1zM131 63.3l-.2.4c-.5 1.2-.7 3.8-.5 5.1l.1.7.1-.1.1-.1c1-1.2 1-2.7.8-3.8-.1-.8-.3-1.4-.4-1.6l-.1-.2.1-.4zM132.1 67.8l-.3.3c-.9 1.1-2.1 4.3-2.2 5.3v.3l.3-.2c2.2-1.5 2.3-4.2 2.2-5.4V67.8zM131.8 72.8l-.3.2c-1.4.9-3.7 3.7-4.1 4.9l-.1.3.3-.1c2.3-.7 3.8-3.3 4.2-4.9v-.4zM127 62.9l.1.4c.3 1.1 1.5 3.1 2.4 3.9l.2.2V67c.1-1.6-.7-2.9-2.4-4l-.2-.1h-.1zM127.9 66.4v.4c0 1.2.9 3.7 1.6 4.7l.2.3.1-.3c.1-.3.2-.6.2-.9.1-1.9-1.3-3.4-1.8-3.8l-.1-.1-.2-.3zM127.9 69.6l-.1.3c-.1.3-.1.7-.2 1.3 0 1.5.2 3.4.5 4l.1.2.2-.2c.5-.7.7-1.4.7-2.1 0-1-.3-2.1-1.1-3.2l-.1-.1v-.2zM127.1 73.2l-.2.3c-.7.9-1.6 3.9-1.6 5.1v.5l.2-.1a3.9 3.9 0 001.9-3.4c0-.6-.1-1.3-.3-2v-.4zM129.7 77.8l-.3.1c-1.3.2-4.9 2.2-5.4 3.1l-.1.2h.2c3 .5 4.6-1.5 5.5-3.1l.1-.2v-.1zm-.3.1zM115.4 82.4c-.1 0-2.2 1.2-3.6 3l-.1.1.1.1c.1.1.3.3.5.3h.1l.1-.1c1.3-1.6 3.6-3.6 6-3.9.4.4.7.7 1.2.8 1.4.5 3.7.2 5.6-.5l.4-.2-.5-.1c-4.5-1.2-7.9-.4-9.8.5zM125.1 76.8l-.3.1c-1 .7-3.7 3-3.9 3.8v.2h.2c3 .3 3.7-2.1 4-3.9v-.2z"/>

      <path d="M48.3 58.5h3.8V62h-3.8v-3.5zm.3 24.2V65.9h3.2v16.9h-3.2zM24.5 65.9h3.2v16.9h-3.1v-2.5h-.1c-1.3 2.1-3.4 3-5.8 3-3.5 0-5.5-2.7-5.5-6.1V65.9h3.2v10c0 2.9.7 5.1 3.7 5.1 1.3 0 3.1-.7 3.8-2.4.6-1.6.6-3.6.6-4v-8.7zM34.1 68.4c1.1-2.1 3.5-3 5.2-3 1.2 0 6.4.3 6.4 5.7v11.7h-3.2V72.1c0-2.8-1.2-4.3-3.9-4.3 0 0-1.7-.1-3.1 1.2-.5.5-1.3 1.2-1.3 4.5v9.2H31V65.9h3.1v2.5zM65.1 71.3c-.2-2.1-1.2-3.6-3.4-3.6-3 0-4.2 2.6-4.2 6.6 0 3.9 1.2 6.6 4.2 6.6 2.1 0 3.4-1.4 3.6-3.8h3.2c-.3 3.8-3.1 6.1-6.8 6.1-5.4 0-7.5-3.8-7.5-8.7 0-4.9 2.5-9 7.8-9 3.5 0 6.2 2.2 6.4 5.9h-3.3zM73.2 74.9c-.2 2.9 1 6 4.2 6 2.5 0 3.7-1 4.1-3.4h3.3c-.5 3.8-3.4 5.7-7.4 5.7-5.4 0-7.5-3.8-7.5-8.7 0-4.9 2.5-9 7.8-9 5 .1 7.4 3.3 7.4 7.9V75H73.2zm8.5-2.2c.1-2.8-1.2-5-4.3-5-2.6 0-4.2 2.2-4.2 5h8.5zM88.6 82.7V68.1h-2.9v-2.2h2.9v-3.6c.1-3.7 2.9-4.6 5.2-4.6.8 0 1.5.2 2.3.3v2.6c-.5 0-1.1-.1-1.6-.1-1.8 0-2.8.5-2.7 2.3v3.1h3.9v2.2h-3.9v14.6h-3.2z"/>
    <path d="M68.2 95.9c0 3-1.5 4.8-4.7 4.8s-4.7-1.8-4.7-4.8v-7h1.6v7.4c0 2 1.2 3.1 3.1 3.1 1.8 0 3-1.1 3.1-3.1v-7.4h1.6v7zM72.5 97.1c0 1.6 1 2.2 2.5 2.2 1.3 0 2.9-.4 2.9-2 0-1.1-.9-1.6-1.9-1.8-1.9-.4-5.1-.8-5.1-3.4 0-2.5 2.3-3.4 4.5-3.4 2 0 3.9.9 3.9 3.1h-1.7c-.1-1.3-1.2-1.7-2.3-1.7-1.1 0-2.7.4-2.7 1.8 0 1.3.9 1.4 1.9 1.7 2.1.7 5 .7 5 3.6 0 2.6-2.4 3.6-4.7 3.6-2.4 0-4.2-1-4.1-3.6h1.8zM80.9 100.5l4.9-11.6h1.7l4.7 11.6h-1.7l-1.3-3h-5.4l-1.3 3h-1.6zm3.5-4.4h4.3l-2.1-5.6-2.2 5.6z"/>
  </g>
</svg>
